<svg width="67" height="35" viewBox="0 0 67 35" fill="none" xmlns="http://www.w3.org/2000/svg">
<g clip-path="url(#clip0_335_37008)">
<path d="M4.36 31.25C4.21 31.11 4.02 30.99 3.79 30.88C3.56 30.78 3.31 30.69 3.01 30.63L2.5 30.52C2.37 30.49 2.24 30.46 2.14 30.42C2.03 30.38 1.94 30.34 1.86 30.29C1.78 30.24 1.73 30.18 1.69 30.11C1.65 30.04 1.63 29.97 1.64 29.88C1.64 29.77 1.67 29.68 1.74 29.6C1.8 29.52 1.89 29.45 2.02 29.4C2.14 29.35 2.3 29.33 2.48 29.33C2.76 29.33 2.98 29.39 3.13 29.51C3.28 29.63 3.37 29.79 3.39 30H4.76C4.76 29.64 4.66 29.32 4.47 29.05C4.28 28.78 4.02 28.56 3.68 28.41C3.34 28.26 2.94 28.18 2.48 28.18C2.02 28.18 1.63 28.26 1.28 28.41C0.93 28.56 0.65 28.77 0.45 29.04C0.25 29.31 0.15 29.63 0.15 29.98C0.15 30.42 0.3 30.77 0.59 31.03C0.88 31.29 1.29 31.47 1.8 31.59L2.42 31.73C2.64 31.78 2.81 31.83 2.95 31.89C3.09 31.95 3.2 32.02 3.26 32.09C3.33 32.17 3.36 32.26 3.37 32.37C3.37 32.49 3.33 32.59 3.26 32.68C3.19 32.77 3.08 32.84 2.95 32.89C2.81 32.94 2.65 32.97 2.46 32.97C2.25 32.97 2.06 32.94 1.9 32.87C1.74 32.81 1.61 32.71 1.52 32.59C1.43 32.46 1.38 32.31 1.37 32.12H0C0 32.57 0.11 32.95 0.32 33.24C0.53 33.54 0.81 33.76 1.18 33.9C1.55 34.05 1.98 34.12 2.48 34.12C2.98 34.12 3.4 34.05 3.75 33.91C4.1 33.77 4.37 33.57 4.56 33.31C4.75 33.05 4.84 32.73 4.85 32.37C4.85 32.14 4.81 31.93 4.73 31.74C4.65 31.55 4.53 31.39 4.38 31.24L4.36 31.25Z" fill="#1F2A37"/>
<path d="M9.33997 31.6H9.28997L6.95997 28.26H5.71997V34.06H7.15997V30.71H7.18997L9.54997 34.06H10.77V28.26H9.33997V31.6Z" fill="#1F2A37"/>
<path d="M15.35 31.85H15.28L13.77 28.26H12V34.06H13.39V30.48H13.44L14.87 34.03H15.76L17.18 30.5H17.23V34.06H18.63V28.26H16.85L15.35 31.85Z" fill="#1F2A37"/>
<path d="M23.45 28.52C23.12 28.35 22.74 28.26 22.3 28.26H19.85V34.06H21.28V32.26H22.25C22.7 32.26 23.1 32.18 23.43 32.01C23.76 31.85 24.01 31.61 24.19 31.32C24.37 31.02 24.46 30.67 24.46 30.27C24.46 29.87 24.37 29.52 24.2 29.22C24.02 28.92 23.78 28.68 23.45 28.51V28.52ZM22.87 30.74C22.8 30.87 22.68 30.98 22.54 31.05C22.39 31.12 22.21 31.16 22 31.16H21.29V29.39H22C22.21 29.39 22.4 29.43 22.54 29.5C22.69 29.57 22.8 29.67 22.87 29.8C22.94 29.93 22.98 30.09 22.98 30.27C22.98 30.45 22.94 30.6 22.87 30.74Z" fill="#1F2A37"/>
<path d="M63.79 20.84H63.65L57.1 11.59L53.88 14.06V24.76H56.15V13.94H56.29L63.96 24.76H66.05V10.01H63.79V20.84Z" fill="#1F2A37"/>
<path d="M33.73 10.01H31.46V14.27H33.73V10.01Z" fill="#1F2A37"/>
<path d="M33.73 20.25H31.46V24.76H33.73V20.25Z" fill="#1F2A37"/>
<path d="M20.17 20.25H17.9V24.76H20.17V20.25Z" fill="#1F2A37"/>
<path d="M20.18 11.91H23.04C23.79 11.91 24.4 12.02 24.86 12.24C25.32 12.46 25.66 12.77 25.88 13.18C26.05 13.49 26.13 13.87 26.17 14.27H28.47C28.42 13.52 28.25 12.83 27.92 12.23C27.54 11.54 26.96 10.99 26.19 10.6C25.42 10.21 24.45 10.01 23.28 10.01H17.91V14.27H20.19V11.92L20.18 11.91Z" fill="#1F2A37"/>
<path d="M24 20.25L26.48 24.76H29.07L26.55 20.25H24Z" fill="#1F2A37"/>
<path d="M60.11 7.23C60.81 7.79 61.68 8.14 62.64 8.14C64.88 8.14 66.71 6.31 66.71 4.07C66.71 1.83 64.88 0 62.64 0C60.4 0 58.57 1.83 58.57 4.07C58.57 4.63 58.68 5.16 58.89 5.64L49.42 12.14C48.02 10.67 46.02 9.74 43.81 9.74C39.92 9.74 36.7 12.59 36.2 16.26H15.42C14.92 12.59 11.7 9.74 7.81 9.74C3.57 9.74 0.119995 13.11 0.119995 17.26C0.119995 21.41 3.57 24.78 7.81 24.78C11.7 24.78 14.92 21.93 15.42 18.26H36.2C36.7 21.93 39.92 24.78 43.81 24.78C48.05 24.78 51.5 21.41 51.5 17.26C51.5 15.99 51.18 14.8 50.61 13.76L60.11 7.23ZM62.64 2C63.78 2 64.71 2.93 64.71 4.07C64.71 5.21 63.78 6.14 62.64 6.14C61.5 6.14 60.57 5.21 60.57 4.07C60.57 2.93 61.5 2 62.64 2ZM7.81 22.28C4.95 22.28 2.62 20.03 2.62 17.26C2.62 14.49 4.95 12.24 7.81 12.24C10.67 12.24 13 14.49 13 17.26C13 20.03 10.67 22.28 7.81 22.28ZM43.81 22.28C40.95 22.28 38.62 20.03 38.62 17.26C38.62 14.49 40.95 12.24 43.81 12.24C46.67 12.24 49 14.49 49 17.26C49 20.03 46.67 22.28 43.81 22.28Z" fill="#1F2A37"/>
</g>
<defs>
<clipPath id="clip0_335_37008">
<rect width="66.71" height="34.13" fill="white"/>
</clipPath>
</defs>
</svg>
